<svg xmlns="http://www.w3.org/2000/svg" version="1.1" width="600px" height="600px" viewBox="0 0 200 200" style="overflow:hidden!important;"><g id="svga-group-wrapper"><g id="svga-group-backs-single"></g><g id="svga-group-humanwrap-move" transform="matrix(1,0,0,1,2,-6)"><g id="svga-group-humanwrap" transform="matrix(0.8499995000000001,0,0,0.8499995000000001,15.311505429660784,18.328189813092223)"><g id="svga-group-hair-back-move" transform="matrix(0.9986295346632305,0.05233595798588105,-0.05233595798588105,0.9986295346632305,7.202400861770897,-5.048582978124216)"><g id="svga-group-hair-back" transform="matrix(1.0200001,0,0,1.0001001,-2.012010258365251,-0.012232221221935902)"><path id="SvgjsPath10844" d="m59.8 88.3 9.1 69.3 10.3 1.6 1.8-3.1 1.9 2.9 36-1.4 1-12.2.9 12.2 19-.9 1.6-71.5z" fill="#af8b67" stroke-width="none" opacity="1" stroke="none"></path></g></g><g id="svga-group-humanbody-back"><path id="SvgjsPath10663" d="M77.8 105.9s4.8 37.7 10 55.8c0 0-6.4 8.8-14.5 11.9-28.7 11.2-35 11.2-39.6 15.2-2.4 2.1.2 11.1 1.8 17.2 1.3 5 1.7 13.2 1.7 13.2h132.2s1.6-33-.6-39.8-7.1-2.9-21.9-4.5c-14.8-1.6-28.7-10.3-31-13.2l.3-60-38.4 4.2z" fill="#f3d4cf" stroke-width="none" opacity="1" stroke="none"></path></g><g id="svga-group-chinshadow-single"><path id="SvgjsPath10659" d="M85.6 152.8c6.6 3.5 10.7 3.5 10.7 3.5s8 0 19.6-9.5l.2-45.2-38.4 4.2c.1.1 3.6 27.7 7.9 47z" fill="#d4958a" stroke-width="none" opacity="1" stroke="none"></path></g><g id="svga-group-humanbody-front"><path id="SvgjsPath10664" d="M72.1 183.1s14.6-.2 20.4 2.6c5.8 2.9 12.7 2.4 16.1-1s21.6-7 21.6-7-19.7 1.9-25 4.6c-5.3 2.7-22.3-2.8-33.1.8z" fill="#d4958a" stroke-width="none" opacity="1" stroke="none"></path><path id="SvgjsPath10665" d="M74.2 173.2c6.7-1.3 14.7-6.4 14.7-6.4l6.2 5.5c-4.3-7.9-12.7-41.1-12.7-41.1l-.7.7c1.7 10.5 3.9 21.9 6.1 29.7 0 0-6 8.2-13.6 11.6z" fill="#d4958a" stroke-width="none" opacity="1" stroke="none"></path><path id="SvgjsPath10666" d="M170.7 188.5c-.1-2.1-.2-4.1-.4-6.2-.1-1-.3-2.1-.6-3.2-.2-.5-.4-1-.6-1.6-.2-.5-.6-1-1-1.5s-.9-.9-1.5-1.1c-.6-.3-1.1-.4-1.7-.6-1.1-.2-2.2-.2-3.2-.2-2.1 0-4.1.1-6.1.1s-4-.1-6-.2-4-.4-6-.7c-1-.2-2-.4-2.9-.6l-1.5-.4c-.5-.1-1-.3-1.4-.4-3.8-1.1-7.6-2.6-11.2-4.4l-1.3-.7-1.3-.7c-.4-.2-.9-.5-1.3-.8s-.9-.5-1.3-.8-.8-.5-1.3-.8l-1.2-.9-.6-.5-.3-.2-.3-.2c-.2-.2-.4-.3-.5-.5l-.2-.3v-44.6l-.1-15v-.6l-.6.1c-6.4.8-12.9 1.5-19.3 2.3l-19.1 2.3v.5l.1.4.1.9.2 1.8c.1 1.2.3 2.3.4 3.5l.9 7c.6 4.7 1.3 9.4 2.1 14 .8 4.7 1.5 9.3 2.5 14 .9 4.5 1.8 9 3 13.5-1.1 1.4-2.3 2.7-3.6 4-1.3 1.3-2.8 2.6-4.3 3.8-1.5 1.1-3.1 2.2-4.8 3l-1.3.6c-.4.2-.9.3-1.3.5l-2.7 1c-7.2 2.7-14.5 5.3-21.8 7.7l-5.5 1.8c-1.8.6-3.7 1.3-5.5 2.2-.4.2-.9.5-1.3.7-.4.3-.9.5-1.3.9l-.6.5c-.2.2-.5.5-.6.8-.3.5-.4 1.1-.5 1.6-.2 1.1-.1 2.1 0 3.1s.3 2 .4 2.9c.4 1.9.8 3.8 1.3 5.7l.8 2.8c.3.9.5 1.8.7 2.8.4 1.9.7 3.8.9 5.7s.4 3.8.5 5.7v.8h133.4v-.8c.2-4.1.4-8.2.5-12.3s.2-8.2.2-12.3c0-1.8-.1-3.8-.1-5.9zm-67.4 30.3H70.2l-16.5-.1-16-.1c-.1-1.8-.2-3.5-.4-5.3-.2-1.9-.4-3.9-.8-5.8-.2-1-.4-1.9-.7-2.9l-.7-2.8c-.5-1.9-.9-3.7-1.2-5.6-.2-.9-.3-1.9-.4-2.8-.1-.9-.1-1.9 0-2.7.1-.4.2-.8.4-1.1.1-.2.2-.3.3-.4l.5-.4c.3-.3.7-.5 1.1-.8.4-.2.8-.5 1.2-.7 1.7-.8 3.5-1.4 5.3-2l5.5-1.8c7.3-2.4 14.6-5 21.8-7.8l2.7-1c.5-.2.9-.3 1.4-.5l1.4-.6c1.8-.9 3.4-2 5-3.2s3-2.5 4.4-3.9 2.7-2.9 3.8-4.5l.2-.3-.1-.3c-1.3-4.5-2.3-9.1-3.3-13.7s-1.9-9.3-2.7-13.9c-.8-4.6-1.6-9.3-2.4-14l-2.2-13.9 19.3-1.8c6.2-.6 12.3-1.2 18.5-1.8l-.2 14.4-.2 15-.3 30v.4l.2.2.6.7.6.6.3.3.3.2.6.5c.4.3.9.6 1.3.9.4.3.9.6 1.3.9.4.3.9.5 1.3.8s.9.5 1.3.8l1.4.8 1.4.7c.5.2.9.5 1.4.7l1.4.7c1 .4 1.9.8 2.9 1.2s1.9.8 2.9 1.1l1.5.5c.5.2 1 .3 1.5.4.5.1 1 .3 1.5.4l1.5.4c1 .3 2 .4 3 .6 2 .4 4.1.6 6.2.8 2.1.2 4.1.2 6.2.2 2.1 0 4.1-.1 6.1-.1s4 .1 5 1.3c.5.6.9 1.4 1.2 2.3.3.9.4 1.9.6 2.8.3 2 .4 4 .5 6s.1 4.1.2 6.1c.1 7.9-.1 15.8-.4 23.7-10.8.1-21.5.1-32.3.2h-33.1z" fill="#c5796d" stroke-width="none" opacity="1" stroke="none"></path><path id="SvgjsPath10667" d="M150.7 219.2 147 198l-.4 21.2z" fill="#d4958a" stroke-width="none" opacity="1" stroke="none"></path><path id="SvgjsPath10668" d="M47.3 203.5s2.2 11.5 2.9 15.7h3.5l-6.4-15.7z" fill="#d4958a" stroke-width="none" opacity="1" stroke="none"></path></g><g id="svga-group-clothes-single"><path id="SvgjsPath10819" d="M83.3 143.2c-.5.1-14.9 3.7-17.3 4.9-2.5 1.2-1.2 6.9-2.2 7.8-.9.9-12 12.7-11.3 14s6.1 4 5.8 5.5c-.3 1.5-.9 2-.9 2s-22.5 5.4-24.7 7.5c-2.1 2.1-3.5 6.9-2.1 9.8 0 0-.8 4.8.1 10s1.8 9.4 1.8 9.4l.2 5.8h140.9s-.6-15-.4-17.9 1.8-13.7.7-16.2-1.6-5.1-1.6-5.1-1.6-7.5-5.5-8.9c-4-1.3-20.1.7-23 0s-.2-.9-.2-.9 2.2-1.6 2-3.1-4.9-4.4-6-7.3 0-6.4-2.4-7.5-5.1-3.1-8-6c-2.9-2.9-12.2-4-12.2-4s0 12.2-.2 14.2.2 8-.2 11.1c-.4 3.1-14.6 15.7-15.7 16.8S88 173.6 86 170.9c-2-2.7 1.3-6 1.3-9.1S84 148.8 84 147s-.7-3.8-.7-3.8z" fill="#1e2324" stroke-width="none" opacity="1"></path><path id="SvgjsPath10820" d="M57.6 175.2zm116.6 25.7c.4-3.1.8-6.3.9-9.5.1-1.6.2-3.2-.1-5 0-.4-.3-1.1-.4-1.3-.1-.3-.3-.7-.4-1.1-.2-.7-.5-1.4-.6-2.2-.1-.4-.2-.7-.2-1.1l-.3-1.2c-.2-.8-.5-1.6-.8-2.4-.6-1.5-1.3-3.1-2.5-4.4-.6-.7-1.3-1.3-2.2-1.7-.4-.2-.9-.3-1.3-.4-.4-.1-.8-.1-1.3-.2-1.6-.1-3.3-.1-4.9-.1-3.2.1-6.4.2-9.5.4-1.6.1-3.2.1-4.7.1h-.6a5 5 0 0 0 1.1-1.6c.2-.6.4-1.4.1-2.2-.3-.7-.7-1-1-1.4-1.4-1.4-2.8-2.6-3.9-3.9-.3-.3-.5-.7-.7-1-.2-.3-.3-.7-.4-1.1-.2-.8-.3-1.6-.4-2.6-.1-.9-.1-1.9-.5-3-.2-.5-.6-1.1-1.1-1.6-.2-.2-.5-.4-.8-.5l-.6-.3c-1.6-.8-3-1.9-4.4-3-.7-.6-1.4-1.2-2-1.8-.6-.6-1.5-1.4-2.4-1.9-1.8-1-3.6-1.5-5.5-2-1.8-.5-3.7-.8-5.6-1.1l-1.1-.1v1.1c0 4.1 0 8.1-.1 12.2 0 .5 0 1-.1 1.5l-.1.8V161.2c0 2 .1 4.1-.1 6 0 .2-.1.5-.1.7l-.1.2-.1.3c-.2.4-.4.8-.7 1.2-.6.8-1.2 1.6-1.9 2.3-1.3 1.5-2.7 3-4.2 4.4s-2.9 2.9-4.4 4.2l-2.2 2.1-1.1 1.1-.6.5c-.3-.1-.7-.4-1.1-.7l-1.2-.9c-.8-.6-1.5-1.3-2.2-2-1.5-1.4-2.9-2.8-4.3-4.3s-2.8-2.9-4.1-4.5c-.7-.8-1.4-1.5-1.6-2.3-.2-.8-.1-1.8.3-2.7.3-.9.7-1.9 1.1-2.9.3-1 .5-2.1.3-3.2-.3-2.1-.9-4-1.4-6-.5-1.7-.9-3.3-1.4-5-.1-.3-.2-.6-.2-.9l-.3-1.5c-.1-.5-.1-1-.2-1.5l-.3-1.5-.2-.7-.1-.4-.1-.2v-.2s0-.1-.1-.1c-.4.1-.6.1-.9.2l-.8.2-1.7.4-3.3.8c-2.2.6-4.4 1.1-6.7 1.7-1.1.3-2.2.6-3.3 1-.3.1-.6.2-.8.3-.3.2-.6.4-.8.6-.4.5-.7 1.1-.8 1.7-.3 1.2-.3 2.4-.4 3.5 0 .6-.1 1.1-.2 1.6 0 .1-.1.2-.1.3v.1s-.1.1-.2.1l-.6.6c-3.2 3.3-6.3 6.7-9.2 10.3-.4.5-.7.9-1 1.4-.2.2-.3.5-.5.8-.1.1-.2.3-.2.5v.5c0 .1.1.3.1.3l.1.1c.5.7 1 .9 1.4 1.3l1.4 1c.9.7 1.9 1.4 2.5 2.1.2.2.2.4.3.4v.1c0 .1-.1.2-.1.4-.1.2-.2.5-.3.7 0 .1-.1.2-.2.3v.1c-5.8 1.4-11.7 2.9-17.5 4.6-1.5.4-2.9.9-4.4 1.4l-1.1.4-1.1.5c-.4.2-.9.5-1.1.9-.3.3-.5.6-.8 1-.9 1.4-1.5 2.9-1.8 4.5-.2 1.5-.3 3.2.4 4.7-.2 1.6-.3 3.2-.3 4.8 0 1.7.2 3.3.4 5l1.9 9.5.2 5.7v.8h.8l35.2-.3c11.7-.1 23.5-.2 35.2-.2 11.7 0 23.5 0 35.2.1l35.2.3h.7v-.7l-.2-9.5-.1-4.7v-2.4c.4-.1.4-.8.5-1.6zm-68.7-19.1c1.5-1.4 3-2.8 4.4-4.2 1.5-1.4 2.9-2.9 4.3-4.4.7-.8 1.4-1.6 2-2.4.3-.4.6-.9.9-1.4l.2-.4c0-.1.1-.2.1-.3.3-.3.6-.5.9-.8.8-.7 1.7-1.3 2.6-2 1.7-1.4 3.4-3.2 4.3-5.5.4-1.1.6-2.5.3-3.7-.3-1.2-.8-2.3-1.6-3.2-1.4-1.8-3.3-3.2-5.3-4.1 1.6 1.6 3 3.2 4 5 .5.9.9 1.8 1 2.7.1.9 0 1.8-.3 2.7-.7 1.8-2 3.4-3.5 5-.7.8-1.5 1.6-2.2 2.5l-.1.1c.2-2 .1-3.9.1-5.9v-3.7l.1-.8c0-.5.1-1.1.1-1.6.1-3.7.2-7.4.2-11.1 1.4.2 2.8.5 4.2.8 1.8.4 3.5 1 5 1.8.8.4 1.2.9 1.9 1.6.7.7 1.4 1.3 2.1 1.9.2.2.5.4.7.6.4 1.1.8 2.2 1.1 3.3.4 1.6.7 3.2.6 4.7 0 .4-.1.7-.2 1.1-.1.3-.3.5-.6.9-.5.6-1.1 1.2-1.6 1.9-1.1 1.2-2.1 2.5-3.1 3.9 1.3-1.1 2.5-2.2 3.6-3.3.6-.6 1.2-1.2 1.7-1.8.3-.2.6-.7.8-1.1.2-.4.2-.9.3-1.3.1-1.8-.3-3.4-.9-5-.3-.9-.7-1.8-1.2-2.6 1.1.8 2.2 1.6 3.5 2.2.2.1.4.2.7.3.1.1.3.1.4.2.2.2.4.4.5.7.2.6.3 1.5.4 2.5.1.9.2 1.9.5 2.9.1.5.4 1 .6 1.5 0 .1.1.1.1.1v.3c0 1.2-.2 2.4-.7 3.4-.5 1-1.3 1.9-2.2 2.5-1.9 1.4-4.1 2.6-6.3 3.8l-6.5 3.6c-4.3 2.4-8.7 4.8-12.9 7.5-1.1.7-2.1 1.4-3.1 2.1l-1.5 1.2-.4.4c-.1.1-.2.3-.3.4l-.5.8c-1.2 1.9-2.3 3.9-3.4 5.8-1.4-1.1-2.8-2.2-4.3-3.1.4-.4.8-.8 1.1-1.2.7-.7 1.3-1.4 1.9-2.1.5-.6 1.1-1.3 1.6-2l.4-.3 1.1-1 2.4-2.4zm-2.4 14.5c0 .1 0 .1 0 0zm-2.7-11.7zm-36.2-28.4c.1-.1.1-.2.2-.3.1-.2.1-.4.2-.5.1-.6.1-1.2.2-1.8 0-1.1.1-2.3.3-3.3.1-.5.3-1 .6-1.4.1-.2.3-.3.5-.5.2-.1.5-.2.8-.3 1.1-.4 2.1-.8 3.2-1.1 2.2-.7 4.4-1.3 6.6-1.9l3.3-.9 1.7-.5.8-.2c.2-.1.6-.1.7-.2v.1l.1.2.1.4.2.7c.1.5.2 1 .2 1.5.1.5 0 1 .1 1.5l.3 1.5c.1.3.2.6.2.9-1.8.7-3.6 1.4-5.2 2.3-.9.5-1.8 1.1-2.5 1.9-.7.8-1.4 1.7-1.7 2.7-.3 1-.3 2.2-.1 3.2.1 1 .3 2.1.6 3.1.5 2 1.1 4 1.8 5.9l1.1 2.9c.2.5.3.9.5 1.4.2.6.6 1.1 1 1.4 1.6 1.4 3.4 2.4 5.2 3.4 1.8 1 3.7 1.9 5.5 2.7 1.8.9 3.8 1.6 5.5 2.6-3.4-2.2-7.2-3.9-10.7-6-1.7-1.1-3.5-2.1-5-3.4-.3-.3-.6-.7-.7-1.1-.2-.5-.3-1-.5-1.5l-1.1-2.9c-.7-1.9-1.4-3.8-1.8-5.8l-.6-3c-.2-1-.2-1.9 0-2.9.4-1.9 2-3.3 3.7-4.4 1.6-1 3.3-1.8 5-2.7.4 1.6.8 3.3 1.2 4.9.5 2 1 4 1.2 5.9.3 1.9-.8 3.7-1.5 5.7-.2.6-.4 1.2-.4 1.9l-.6-1.2c-.6-1.1-1.1-2.3-1.5-3.4-.4-1.1-.6-2.2-.6-3.4 0-1.2.1-2.5.2-3.8-.9 1-1.5 2.3-1.8 3.7-.3 1.4-.2 2.9.3 4.3.5 1.3 1.3 2.5 2.1 3.5.6.8 1.3 1.5 2.1 2.1.2.5.4.9.7 1.2.3.4.7.8 1 1.2 1.3 1.6 2.7 3.1 4.1 4.6 1.4 1.5 2.8 3 4.3 4.4.7.7 1.5 1.4 2.3 2.1.4.3.8.7 1.2 1 .4.3.8.6 1.5.9-.2.3-.5.6-.8.9-.6.7-1.2 1.5-1.7 2.3-.3.5-.6.9-.9 1.4l-1.5-.9c-1.1-.6-2.2-1.2-3.5-1.6-1.2-.4-2.3-.7-3.5-1.1-2.3-.7-4.7-1.4-7-2.2-2.3-.8-4.6-1.6-6.6-2.8-.5-.3-1-.6-1.3-.9-.2-.1-.3-.3-.4-.4v-.2l-.1-.5c-.4-1.3-.8-2.4-1.3-3.6-1-2.3-2-4.5-3.1-6.7-.6-1.1-1.1-2.2-1.8-3.3-.3-.6-.6-1-.8-1.6-.2-.5-.4-1.1-.5-1.7-.5-2.2-.7-4.5-1.3-6.7-.1.4 0 .4 0 .3zm-8.6 15.3-1.4-1c-.4-.3-.9-.7-1.1-.9 0-.1 0-.1.1-.2.1-.2.2-.4.4-.7.3-.5.6-.9 1-1.4 2.7-3.6 5.8-7 8.9-10.4l.3-.4c.2 2.2.2 4.4.6 6.6.1.6.2 1.2.4 1.9.2.6.5 1.3.7 1.8l1.5 3.3c1 2.2 1.9 4.5 2.8 6.8.4 1.1.8 2.3 1.1 3.4l.1.4.1.3c0 .1.1.3.2.4.2.4.5.8.8 1 .6.5 1.1.9 1.7 1.2 2.3 1.3 4.6 2.1 7 2.9 2.4.8 4.7 1.4 7.1 2.1l3.6.9c1.1.3 2.2.8 3.2 1.3 2 1 3.9 2.2 5.8 3.5-.2-.1-.5-.1-.7-.2-2.4-.6-4.8-1.1-7.2-1.5-4.8-.8-9.7-1.5-14.6-2.1-2.4-.3-4.9-.5-7.3-.8-.3 0-.6-.1-.8-.1H69.6c-.1 0-.1-.1-.2-.1-.3-.3-.7-.8-1-1.2-.6-1-1.2-2.1-1.7-3.1-.5-1.1-1.1-2.2-1.7-3.3-.7-1.2-1.5-2.1-2.3-3-1.1-1.3-2.3-2.5-3.6-3.7v-.3c-.2-.5-.4-.8-.6-1-1-1.1-1.9-1.7-2.9-2.4zm47.6 48c-11.7-.1-23.5-.1-35.2-.2l-34.5-.3-.1-5v-.2l-1.8-9.6c-.2-1.6-.4-3.1-.4-4.7s.1-3.2.3-4.7v-.3l-.1-.2c-.5-1.1-.6-2.6-.3-3.9.2-1.4.7-2.7 1.5-3.9.2-.3.4-.6.6-.8l.3-.3c.1-.1.2-.1.3-.2l1-.5 1-.4c1.4-.5 2.8-1 4.3-1.4 5.8-1.8 11.7-3.3 17.5-4.8h.2l.1-.1c.3-.2.3-.3.5-.5.1-.1.2-.3.3-.5.2-.3.3-.6.3-.9v-.2c1 1.2 1.9 2.4 2.8 3.6.3.5.7 1 1 1.5l.5.8c.1.2.3.5.4.8l1.5 3.3c.5 1.1 1 2.3 1.7 3.4.3.6.7 1.1 1.3 1.7.2.1.3.3.5.4.1.1.2.1.4.1l.3.1c.4.1.7.1 1 .2 2.5.4 4.9.5 7.4.7 4.9.3 9.8.4 14.6 1 2.4.3 4.8.8 7.2 1.4 1.2.4 2.3.8 3.3 1.4.1.1.2.1.4.2h.1l.2.1c.6.3.6-.9.5-.7 0-.1-.1-.1-.1-.1l-.1-.1-.2-.2-.7-.6c-.4-.4-.9-.8-1.3-1.1 1.4-1.8 2.8-3.5 4.1-5.3l.6-.8.2-.3.3-.3c.5-.4 1-.7 1.5-1 1-.6 2.1-1.3 3.2-1.9l13.1-7.1c2.2-1.2 4.3-2.4 6.5-3.7 2.1-1.3 4.3-2.6 6.3-4.2 1-.8 1.9-1.9 2.4-3.2.4-.9.5-1.9.5-2.8 1.2 1.4 2.6 2.6 3.7 3.8.3.3.6.6.6.8 0 0 0 .3-.1.5-.2.4-.6.9-1.1 1.3-.2.1-.4.1-.6.2-.1 0-.2.1-.4.1-.1 0-.1 0-.2.1-.1 0-.2.1-.3.1-1.2.4-2.1 1-3 1.6-3.7 2.4-7 5.2-10.5 7.6-.9.6-1.7 1.2-2.6 1.7-.4.2-.9.5-1.3.6-.5.2-1.1.3-1.6.5-2.1.8-4.1 1.6-6 2.6-2 1-3.9 2-5.7 3.2-.9.6-1.8 1.2-2.7 1.9-.8.7-1.7 1.5-2.1 2.5.6-.9 1.6-1.5 2.5-2 .9-.6 1.9-1.1 2.8-1.5 1.9-1 3.9-1.8 5.9-2.7 2-.8 4-1.6 6-2.3l1.5-.5c.6-.2 1.2-.5 1.7-.7 1-.6 1.9-1.2 2.8-1.8 3.6-2.6 6.8-5.4 10.2-7.9.6-.4 1.2-.9 1.9-1.2.1.1.1.2.2.3.1.1.2.1.2.1l.1.1c.2.1.3.1.4.2.2.1.5.1.7.2.4.1.9.2 1.4.2h1.2c1.6 0 3.2-.1 4.8-.2 3.2-.2 6.3-.4 9.5-.5 1.6 0 3.1 0 4.6.1 1.6.1 2.6.5 3.6 1.6.9 1 1.6 2.4 2.2 3.8.3.7.5 1.4.7 2.2.1.4.2.7.3 1.1l.3 1.2c.2.8.4 1.6.7 2.4.1.4.3.8.5 1.2.1.2.2.4.2.5 0 .1.1.2.1.4.2 1.4.2 3 .1 4.5-.1 3.1-.5 6.3-.8 9.4-.1.8-.1 1.6-.1 2.4v2.4l.1 4.8.4 8.8-19.9.1c.2-1.6.5-3.1.8-4.7.3-1.7.6-3.4.8-5.1.3-1.7.5-3.4.7-5.1.1-.9.2-1.7.3-2.6l.1-1.3c0-.4.1-.9.1-1.2.2-1.4 1.1-2.9 2-4.2.9-1.4 2-2.7 3.1-4 2.2-2.6 4.6-5.1 7-7.6-2.9 1.9-5.6 4.1-8.1 6.6-1.2 1.2-2.4 2.6-3.5 4-1 1.5-2.1 3-2.4 5.1l-.8 10.4c-.1 1.7-.2 3.5-.3 5.2 0 1.6-.1 3.2.1 4.8l-14.5.1c-12 .1-23.8.1-35.5.1zM47 202.6c-.3-.6-.7-1.4-1.2-2-.2-.3-.5-.6-.8-.9l-.8-.8c-1.1-.9-2.3-1.8-3.6-2.4-1.2-.7-2.6-1.2-3.9-1.7-1.3-.5-2.7-.9-4.1-1 2.5 1.2 4.9 2.6 7.2 4.1 1.1.8 2.2 1.6 3.1 2.5.2.2.5.4.7.7.2.2.4.5.6.7.2.2.3.5.5.8.2.2.3.6.4.9 1.1 2.5 1.9 5.1 2.9 7.7 1 2.6 1.9 5.2 3 7.8-.3-2.8-.9-5.5-1.5-8.2-.6-2.9-1.4-5.6-2.5-8.2z" fill="#030505" stroke-width="none" opacity="1"></path><path id="SvgjsPath10821" d="M110.3 203.4c0-.6-.1-1.3-.3-1.9-.3-1.2-.8-2.4-1.4-3.4-.6-1.1-1.3-2.1-2-3-.8-.9-1.6-1.8-2.5-2.6-.5-.4-.9-.8-1.5-1.1l-.6-.3c.1-.4-.1-.9-.5-1.1-.5-.3-1.1-.1-1.3.4 0 .1-.1.1-.1.2H99c-.7.1-1.3.2-2 .4-1.3.3-2.6.8-3.7 1.5-1.2.7-2.3 1.5-3.2 2.7-.9 1.1-1.4 2.7-1.4 4.1 0 2.3-.9 4.8-2.1 7.1l-.9 1.7c-.3.6-.6 1.2-.7 1.9-.1.4-.1.8.1 1.2.2.4.5.7.8.9.7.3 1.2.5 1.8.8.6.3 1.2.5 1.9.7.7.2 1.4.4 2.2.3.4-.1.9-.2 1.3-.6.4-.3.6-.8.8-1.2.3-.8.3-1.6.3-2.3-.1-2.7-.6-5.2-.8-7.7-.2-1.2-.2-2.4 0-3.5.1-.5.3-1 .6-1.5s.7-.9 1.1-1.4c.8-.9 1.8-1.7 2.8-2.5.5-.4.9-.7 1.4-1.1-.8 1.6-1.5 3.1-2.1 4.8-.4 1.1-.8 2.3-1.1 3.5-.1.6-.2 1.2-.3 1.9-.1.6 0 1.3 0 1.9.1 2.3 0 4.6-.5 6.9-.4 2.3-1.2 4.5-2.3 6.6 1.5-1.9 2.5-4.1 3.2-6.4.7-2.3 1.1-4.7 1.1-7.2 0-.6 0-1.1.1-1.7.1-.5.2-1.1.3-1.6.3-1.1.7-2.2 1.1-3.2.1-.2.2-.4.2-.6v.7c0 2.4.4 4.8.8 7 .4 2.3.9 4.5 1 6.8 0 1.1-.3 2.2-.4 3.3l-.7 3.4 1.2-3.3c.3-1.1.8-2.2.9-3.4.2-2.4-.2-4.7-.4-7s-.6-4.6-.4-6.8c.1-1.8.3-3.6.7-5.4l.9 1.5c.3.5.5 1 .6 1.5.1.5.1 1.1.1 1.6.1 2.3 0 4.6 0 7 0 2.3 0 4.6-.1 7 0 .6 0 1.2.1 1.9.1.6.1 1.3.5 2.1.2.4.8.8 1.2.9.5.1.8 0 1.1-.1.6-.1 1.1-.2 1.6-.2.3 0 .8 0 1.2-.2s.6-.6.7-.9c.2-.7.2-1.3.2-1.9v-3.6c0-1.2.1-2.3.3-3.5.1-.6.2-1.3.2-2zm-11.2-11.9-1.8.9c-1.2.6-2.3 1.3-3.3 2.2-.5.4-1 .9-1.5 1.5s-.8 1.3-1 2c-.4 1.4-.4 2.8-.3 4.2.2 2.7.8 5.2 1.1 7.7.1.6.1 1.1-.1 1.6-.1.4-.3.6-.7.7-.4.1-1 .1-1.6 0-.6-.1-1.2-.3-1.8-.4-.6-.2-1.3-.4-1.8-.6-.5-.2-.7-.6-.7-1.2.2-1.2.9-2.3 1.5-3.4 1.3-2.2 2.9-4.5 3.2-7.3.1-.6.2-1.1.3-1.6.2-.5.5-1 .8-1.5.7-.9 1.6-1.7 2.6-2.4s2.1-1.3 3.3-1.8c.6-.2 1.2-.5 1.8-.7.2-.1.5-.1.7-.2 0 .1-.1.1-.1.1l-.6.2zm10.1 20.8c-.1.6-.2 1.1-.4 1.6-.1.2-.2.4-.4.4-.1.1-.2 0-.5 0-.7-.1-1.3-.1-1.9 0h-.7c-.1-.1-.1 0-.1-.2-.1-.3-.2-.8-.2-1.4 0-.5 0-1.1.1-1.7.2-2.3.4-4.7.3-7.1-.1-2.4-.2-4.7-.6-7.1-.1-.6-.2-1.2-.4-1.8-.1-.3-.2-.5-.3-.7.4.6.8 1.1 1.2 1.8 1.2 1.9 2.3 3.9 3.1 6 .4 1.1.7 2 .6 3.2 0 1.2.1 2.4.2 3.6 0 1.1.1 2.3 0 3.4z" fill="#000000" stroke-width="none" opacity="1"></path><path id="SvgjsPath10822" d="M131.3 152.1c-1.2-3.3-3-2.5-4.6-4.1s-2.9-1.1-5.3-1.9c0 0 2.9 2.1 3.8 2.5s2.8 6.9 2.5 9.5c-.3 2.6-5.6 8.1-7.3 10.6-1.7 2.5-9.1 9.4-12.4 11.8-3.3 2.4-7 8.3-7 8.3s10.8-9.9 13.9-11.2c3-1.3 12.2-10.2 12.6-12.3.4-2.1 4-4.5 5.3-6.3s-.3-3.6-1.5-6.9zm34.9 29.5c1.1 1.7 3-.5 2.2-.9s-1.1-5.8-2.6-6.7-17.8.7-21.8.7-5.6 3.3-11.2 6.2c0 0 5.8-1.3 10-3s10.8-.9 15.3-.7c4.5.2 7 2.7 8.1 4.4zm4.5 19c.4-5.8.8-14.1.8-14.1s-1.4-.4-3.4.4-3.8 2.9-7.7 7.8c0 0 5-2.2 6.9-1.6 1.9.7 1.1 11 1.2 15.7.1 4.8 1.9 8.3 2.6 9.1.8.8-.8-11.5-.4-17.3zm-94.9-23.9c-1.1-1.3-7.1-16.1-7.5-19s.4-8.2.1-8.3c-3.8-1.9-4.6 7.8-.9 13.9 3.7 6.1 5.3 15.1 6.7 16.4 1.4 1.3 21.8 8.6 19.8 7.4-2-1.3-17.2-9.1-18.2-10.4zm-4.6 8.9c-.9-1.4-6.6-11.1-9-12.7-2.4-1.6-5.7-3.4-5.7-3.4 2.4 1.1 9.1 9.9 11.1 13.2s1.2 5.1 2.9 5.4c1.7.3 11.8 2.1 11.8 2.1s-10.2-3.2-11.1-4.6z" fill="#303333" stroke-width="none" opacity="1"></path></g><g id="svga-group-head" transform="matrix(0.9986295346632305,0.05233595798588105,-0.05233595798588105,0.9986295346632305,7.202400861770897,-5.048582978124216)"><g id="svga-group-ears-left-move" transform="matrix(1,0,0,1,-1.5,-1)"><g id="svga-group-ears-left" transform="matrix(0.9999999,0,0,0.9999999,0.000005520549386517359,0.000009723702234509801)"><path id="SvgjsPath10611" d="M63.09 94.03s-3.12-7.36-5.69-9.71c-2.57-2.34-7.59-5.02-9.48-4.35-1.9.67 1.12 8.81 2.23 10.6 1.12 1.79 1.12 11.49 1.23 14.39.11 2.9 2.9 6.25 5.02 8.7 2.12 2.45 4.24-1.12 5.69-4.35s1-15.28 1-15.28z" fill="#f3d4cf" stroke-width="none" opacity="1" stroke="none"></path><path id="SvgjsPath10612" d="M61.92 100.31c-.33-2.85-5.11-11.21-6.86-12.8-1.76-1.59-5.69-4.44-5.77-3.52s2.26 5.69 2.34 8.54.17 10.96 1.09 12.72c.92 1.76 5.69 1.51 6.53-.17s2.67-4.77 2.67-4.77z" fill="#e4b3ab" stroke-width="none" opacity="1" stroke="none"></path><path id="SvgjsPath10613" d="M47.07 80.79c-.11.94.06 1.79.25 2.64.4 1.69.98 3.31 1.62 4.9.33.79.68 1.58 1.11 2.33.35.72.47 1.6.59 2.43.22 1.69.26 3.4.32 5.11.04 1.71.03 3.42.05 5.13.03.85-.04 1.71.14 2.62.17.89.52 1.72.93 2.5.82 1.56 1.87 2.94 2.96 4.28.27.33.55.67.83.99.13.16.29.33.47.5.16.18.38.32.6.45.46.25 1.07.32 1.58.14.49-.19.88-.49 1.21-.81.66-.65 1.13-1.41 1.57-2.16.43-.76.81-1.54 1.15-2.34.63-1.74.72-3.45.84-5.17.17-3.44.07-6.86-.15-10.29-.62-1.62-1.31-3.18-2.08-4.71-.79-1.52-1.59-3.06-2.7-4.42-.56-.69-1.24-1.27-1.92-1.8-.69-.53-1.41-1.01-2.15-1.47-1.49-.89-3.07-1.66-4.83-2.01-.44-.07-.91-.11-1.4.01-.22.02-.56.2-.71.44-.18.22-.23.47-.28.71zm.56.1c.04-.18.1-.36.19-.47.1-.11.16-.15.37-.18.35-.08.75-.02 1.14.05 1.6.33 3.13 1.13 4.58 1.96.73.42 1.44.88 2.11 1.38.68.51 1.32 1.03 1.85 1.67 1.07 1.27 1.97 2.74 2.81 4.22.83 1.48 1.63 3.01 2.37 4.53-.03 3.41-.11 6.84-.4 10.23-.16 1.68-.34 3.42-.92 4.9-.73 1.51-1.47 3.09-2.59 4.22-.28.27-.59.49-.9.61-.31.1-.61.06-.9-.09-.55-.33-1.09-1.11-1.65-1.73-1.09-1.3-2.14-2.64-2.94-4.1-.4-.73-.72-1.5-.9-2.28-.17-.76-.15-1.64-.19-2.49-.06-1.71-.14-3.42-.25-5.13-.11-1.71-.25-3.42-.48-5.12-.14-.85-.25-1.71-.66-2.52-.43-.72-.75-1.52-1.07-2.31-.62-1.59-1.13-3.22-1.44-4.89-.14-.84-.26-1.7-.13-2.46z" fill="#e4b3ab" stroke-width="none" opacity="1" stroke="none"></path><path id="SvgjsPath10614" d="M53.38 89.46c.58 1.22 1.11 2.47 1.51 3.75.4 1.29.75 2.59 1.06 3.9.29 1.31.56 2.63.72 3.97l-.08.02c-.42-1.28-.8-2.56-1.2-3.84-.39-1.28-.78-2.56-1.2-3.82-.41-1.27-.78-2.55-1.24-3.8-.38-1.05-.84-2.1-1.49-3 .37 1.58.79 3.15 1.13 4.74.19.9.36 1.8.49 2.71.07.46.13.92.17 1.38.05.46.04.98.04 1.39.05 1.78.28 3.6.53 5.39.14.9.28 1.79.47 2.67.09.44.2.88.32 1.3.01.02.01.04.02.06.04-.85.09-1.71.11-2.56.04-1.28.1-2.55.06-3.83l.08-.01c.17 1.27.2 2.56.25 3.84.03 1.28.04 2.56.05 3.84v.8l-.52-.59c-.4-.46-.51-.9-.68-1.34-.15-.45-.28-.89-.39-1.34-.23-.9-.42-1.8-.58-2.71-.31-1.82-.56-3.63-.58-5.51.09-1.79-.24-3.58-.47-5.39-.26-1.8-.5-3.62-.9-5.4l-.12-.54.35.42c.88 1.08 1.49 2.29 2.09 3.5z" fill="#c5796d" stroke-width="none" opacity="1" stroke="none"></path></g></g><g id="svga-group-ears-right-move" transform="matrix(1,0,0,1,1.5,-1)"><g id="svga-group-ears-right" transform="matrix(0.9999999,0,0,0.9999999,0.0000144800552277502,0.000009722702017711526)"><path id="SvgjsPath10615" d="M136.91 94.03s3.12-7.36 5.69-9.71c2.57-2.34 7.59-5.02 9.48-4.35s-1.12 8.81-2.23 10.6c-1.12 1.79-1.12 11.49-1.23 14.39-.11 2.9-2.9 6.25-5.02 8.7-2.12 2.45-4.24-1.12-5.69-4.35-1.45-3.23-1-15.28-1-15.28z" fill="#f3d4cf" stroke-width="none" opacity="1" stroke="none"></path><path id="SvgjsPath10616" d="M138.08 100.31c.33-2.85 5.11-11.21 6.86-12.8 1.76-1.59 5.69-4.44 5.77-3.52.08.92-2.26 5.69-2.34 8.54s-.17 10.96-1.09 12.72c-.92 1.76-5.69 1.51-6.53-.17s-2.67-4.77-2.67-4.77z" fill="#e4b3ab" stroke-width="none" opacity="1" stroke="none"></path><path id="SvgjsPath10617" d="M152.66 80.07c-.15-.24-.49-.42-.71-.44-.49-.12-.96-.08-1.4-.01-1.76.35-3.34 1.12-4.83 2.01-.74.45-1.46.93-2.15 1.47-.68.53-1.36 1.1-1.92 1.8-1.11 1.36-1.91 2.9-2.7 4.42-.77 1.54-1.46 3.1-2.08 4.71-.23 3.43-.33 6.85-.15 10.29.12 1.72.22 3.44.84 5.17.34.79.72 1.58 1.15 2.34.44.76.91 1.51 1.57 2.16.33.32.72.62 1.21.81.51.18 1.11.11 1.58-.14.22-.14.44-.27.6-.45.18-.17.34-.34.47-.5.28-.32.55-.66.83-.99 1.09-1.34 2.14-2.72 2.96-4.28.4-.78.75-1.61.93-2.5.17-.92.11-1.77.14-2.62.02-1.71.01-3.42.05-5.13.05-1.71.1-3.42.32-5.11.12-.83.23-1.71.59-2.43.43-.76.78-1.54 1.11-2.33.64-1.59 1.21-3.21 1.62-4.9.18-.85.36-1.7.25-2.64-.06-.23-.11-.48-.28-.71zm-.42 3.27c-.31 1.66-.82 3.3-1.44 4.89-.32.79-.63 1.59-1.07 2.31-.41.81-.52 1.67-.66 2.52-.22 1.7-.37 3.41-.48 5.12-.11 1.71-.2 3.42-.25 5.13-.05.85-.02 1.73-.19 2.49-.18.79-.5 1.55-.9 2.28-.8 1.46-1.85 2.8-2.94 4.1-.56.62-1.1 1.4-1.65 1.73-.29.15-.59.19-.9.09-.31-.12-.62-.34-.9-.61-1.12-1.13-1.86-2.71-2.59-4.22-.58-1.47-.76-3.22-.92-4.9-.29-3.39-.37-6.82-.4-10.23.74-1.52 1.54-3.05 2.37-4.53.84-1.48 1.73-2.95 2.81-4.22.53-.63 1.17-1.16 1.85-1.67.67-.5 1.39-.96 2.11-1.38 1.45-.83 2.98-1.63 4.58-1.96.39-.07.8-.12 1.14-.05.21.03.27.07.37.18.09.11.15.29.19.47.13.77.01 1.63-.13 2.46z" fill="#e4b3ab" stroke-width="none" opacity="1" stroke="none"></path><path id="SvgjsPath10618" d="M146.62 89.46c-.58 1.22-1.11 2.47-1.51 3.75-.4 1.29-.75 2.59-1.06 3.9-.29 1.31-.56 2.63-.72 3.97l.08.02c.42-1.28.8-2.56 1.2-3.84.39-1.28.78-2.56 1.2-3.82.41-1.27.78-2.55 1.24-3.8.38-1.05.84-2.1 1.49-3-.37 1.58-.79 3.15-1.13 4.74-.19.9-.36 1.8-.49 2.71-.07.46-.13.92-.17 1.38-.05.46-.04.98-.04 1.39-.05 1.78-.28 3.6-.53 5.39-.14.9-.28 1.79-.47 2.67-.09.44-.2.88-.32 1.3-.01.02-.01.04-.02.06-.04-.85-.09-1.71-.11-2.56-.04-1.28-.1-2.55-.06-3.83l-.08-.01c-.17 1.27-.2 2.56-.25 3.84-.03 1.28-.04 2.56-.05 3.84v.8l.52-.59c.4-.46.51-.9.68-1.34.15-.45.28-.89.39-1.34.23-.9.42-1.8.58-2.71.31-1.82.56-3.63.58-5.51-.09-1.79.24-3.58.47-5.39.26-1.8.5-3.62.9-5.4l.12-.54-.35.42c-.88 1.08-1.49 2.29-2.09 3.5z" fill="#c5796d" stroke-width="none" opacity="1" stroke="none"></path></g></g><g id="svga-group-faceshape-wrap" transform="matrix(1.0200001,0,0,1.0001001,-2.002009979482281,-0.009034025000005386)"><g id="svga-group-faceshape-single"><path id="SvgjsPath10645" d="M135.9 49.8c-6.7-7.4-11.3-13.2-28.8-17.3-1.8-.4-12.3-.4-14.1 0-17.5 4.1-22.1 9.9-28.8 17.3-7.1 7.8-9.5 29-9.5 29 0 9.6 1.3 32.3 13.3 47.2 17.8 22.2 32.1 22.3 32.1 22.3s14.2 0 32.1-22.3c12-14.9 13.3-37.6 13.3-47.2-.1 0-2.5-21.2-9.6-29z" fill="#f3d4cf" stroke-width="none" opacity="1" stroke="none"></path><path id="SvgjsPath10646" d="M107.1 32.5c-1.8-.4-12.3-.4-14.1 0-17.5 4.1-22.1 9.9-28.8 17.3-7.1 7.8-9.5 29-9.5 29 0 9.6 1.3 32.3 13.3 47.2 17.8 22.2 32.1 22.3 32.1 22.3s14.2 0 32.1-22.3c12-14.9 13.3-37.6 13.3-47.2 0 0-2.4-21.2-9.5-29-6.9-7.4-11.5-13.2-28.9-17.3zM142 63.8c.7 2.5 1.1 5 1.6 7.5.4 2.5.7 5 1 7.5-.2 7.4-1.3 14.8-3 22-.9 3.6-1.9 7.1-3.3 10.5-.7 1.7-1.4 3.4-2.2 5s-1.7 3.2-2.7 4.7l-1.5 2.2c-.3.4-3.4 4.2-3.4 4.2l-3.7 4.1-6.1 5.7c-2.8 2.3-5.8 4.5-9 6.2l-1.2.6-1.2.6c-.8.4-1.6.7-2.5 1l-1.3.4c-.4.1-.8.2-1.3.3-.4.1-1.71.43-2.9.4 0 0-1.4-.2-1.9-.3-.4-.1-.9-.2-1.3-.3l-1.3-.4c-.8-.3-1.7-.6-2.5-1l-1.2-.5-1.2-.6c-3.2-1.6-6.3-3.7-9.1-6l-4.1-3.6-3.9-3.9-1-1-.9-1-1.8-2.1c-1.2-1.4-2.3-2.8-3.3-4.4-1-1.5-2-3.1-2.8-4.8-.8-1.6-1.6-3.3-2.3-5.1-.7-1.7-1.3-3.5-1.8-5.3s-1-3.6-1.4-5.4-.8-3.6-1-5.5c-.3-1.8-.5-3.7-.7-5.5-.4-3.7-.5-7.4-.5-11.1.3-2.3.8-4.6 1.2-6.9.5-2.3 1.1-4.6 1.7-6.8.7-2.2 1.4-4.5 2.3-6.6.4-1.1.9-2.1 1.4-3.1s2.59-4.47 6.3-8.1c1.6-1.7 3.3-3.3 5-4.7 3.5-2.8 7.7-4.9 12-6.5l1.6-.6c6.69-2.31 10.6-2.2 11.8-2.3 2.3-.1 4.71-.26 7-.1 3.16.22 6.8 1.4 6.8 1.4 2.3.6 4.5 1.3 6.7 2.3.3.1 1.6.7 1.6.7.5.3 2.6 1.3 3.1 1.7.5.3 5.3 3.7 6.9 5.4 1.7 1.7 3.3 3.4 4.9 5.2 1.7 1.9 2.9 4.2 3.9 6.6 1.1 2.4 1.9 4.8 2.5 7.3z" fill="#c5796d" stroke-width="none" opacity="1" stroke="none"></path></g></g><g id="svga-group-mouth-single-move" transform="matrix(1,0,0,1,0,1)"><g id="svga-group-mouth-single" transform="matrix(1.0000001,0,0,1.0000001,-0.000010072932440152726,-0.000012503919222695004)"><path id="SvgjsPath10596" d="M85.15 123.95s3.36-.26 5.22-1.19c3.38-1.69 7.26-2.61 11.47-2.32 5.73.39 10.12 4.71 14.07 3.71 0 0-4.38 4.04-8.8 4.97-4.42.93-11.29.85-14.86-.7-3.57-1.57-7.1-4.47-7.1-4.47z" fill="#da7c87" stroke-width="none" opacity="1" stroke="none"></path><path id="SvgjsPath10597" d="M100.64 129.91c-3.15 0-6.35-.4-8.47-1.32-3.55-1.54-7.11-4.46-7.14-4.49l-.39-.32.5-.04c.03 0 3.34-.27 5.14-1.17 3.66-1.83 7.55-2.62 11.57-2.35 2.72.18 5.17 1.25 7.33 2.2 2.49 1.09 4.64 2.03 6.68 1.51l.78-.2-.59.54c-.18.17-4.47 4.09-8.89 5.02-1.85.4-4.17.62-6.52.62zm-14.97-5.81c1.01.79 3.84 2.89 6.66 4.12 3.63 1.58 10.48 1.59 14.74.69 3.41-.72 6.84-3.36 8.15-4.45-1.93.2-3.93-.67-6.2-1.66-2.13-.93-4.54-1.99-7.19-2.17-3.95-.27-7.77.51-11.36 2.3-1.47.73-3.78 1.06-4.8 1.17z" fill="#d26d79" stroke-width="none" opacity="1" stroke="none"></path><path id="SvgjsPath10598" d="M82.94 122.29c1.06 1.09 2.48 1.79 3.94 2.11 1.48.35 2.99.13 4.52 0 1.53-.14 3.05-.31 4.57-.47 1.53-.16 3.04-.34 4.63-.39 1.6.01 3.13.28 4.64.48.76.12 1.51.22 2.26.31.75.11 1.5.18 2.24.22.74.05 1.49.05 2.22 0 .75-.06 1.49-.17 2.23-.3.74-.13 1.48-.31 2.21-.52.73-.2 1.45-.45 2.16-.75.03-.01.06 0 .07.03.01.02 0 .05-.02.07-1.29.88-2.75 1.47-4.25 1.91-.75.23-1.52.38-2.3.51-.79.11-1.59.14-2.38.13-.79-.03-1.57-.1-2.34-.19-.77-.1-1.53-.24-2.29-.37-1.51-.28-3.01-.6-4.48-.67-1.48-.01-3.03.12-4.55.23-1.53.11-3.06.23-4.6.31-.77.03-1.53.08-2.31.08-.78.01-1.57-.09-2.32-.3-1.51-.4-2.92-1.19-3.95-2.36a.06.06 0 0 1 0-.08c.04-.01.08-.01.1.01z" fill="#cb5f6c" stroke-width="none" opacity="1" stroke="none"></path></g></g><g id="svga-group-eyes-left-move" transform="matrix(1,0,0,1,1,-2)"><g id="svga-group-eyes-left"><g id="svga-group-eyesback-left"><path id="SvgjsPath10737" d="M80.2 77.2c7.5 0 13.5 5.8 13.5 13s-6 13-13.5 13-13.5-5.8-13.5-13 6-13 13.5-13z" fill="#ffffff" stroke-width="none" opacity="1"></path></g><g id="svga-group-eyesiriswrapper-left" transform="matrix(1,0,0,1,0,0)"><g id="svga-group-eyesiriscontrol-left" transform="matrix(1,0,0,1,-1,0)"><g id="svga-group-eyesiris-left" transform="matrix(0.9499997000000001,0,0,0.9499997000000001,4.010023907411181,4.510026907411188)"><path id="SvgjsPath10683" d="M80.2 84.9c2.9 0 5.3 2.4 5.3 5.3s-2.4 5.3-5.3 5.3-5.3-2.4-5.3-5.3 2.4-5.3 5.3-5.3z" fill="#7085b3" stroke-width="none" opacity="1" stroke="none"></path><path id="SvgjsPath10684" d="M80.2 85.2c2.8 0 5.1 2.3 5.1 5.1s-2.3 5.1-5.1 5.1-5.1-2.3-5.1-5.1 2.3-5.1 5.1-5.1m0-.6c-3.1 0-5.6 2.5-5.6 5.6s2.5 5.6 5.6 5.6 5.6-2.5 5.6-5.6-2.5-5.6-5.6-5.6z" fill="#3f5a94" stroke-width="none" opacity="1" stroke="none"></path><path id="SvgjsPath10685" d="M77.4 91.7c0 1.3.5 2.5 1.3 3.3.5.1 1 .2 1.5.2 2.8 0 5.1-2.3 5.1-5.1 0-1-.3-2-.8-2.8-.7-.3-1.4-.5-2.2-.5-2.8.1-4.9 2.3-4.9 4.9z" fill="#8d9ec2" stroke-width="none" opacity="1" stroke="none"></path><path id="SvgjsPath10686" d="M80.2 87.5c1.5 0 2.7 1.2 2.7 2.7s-1.2 2.7-2.7 2.7-2.7-1.2-2.7-2.7 1.2-2.7 2.7-2.7z" fill="#000000" stroke-width="none" opacity="1"></path><path id="SvgjsPath10687" d="M79 87.3c.8 0 1.4.6 1.4 1.4s-.6 1.4-1.4 1.4-1.4-.6-1.4-1.4.7-1.4 1.4-1.4zm2.7 4c.5 0 .9.4.9.9s-.4.9-.9.9-.9-.4-.9-.9.4-.9.9-.9z" fill="#ffffff" stroke-width="none" opacity="1"></path></g></g></g><g id="svga-group-eyesfront-left"><path id="SvgjsPath10745" d="M80.2 76.7c-7.8 0-14.1 6.1-14.1 13.6s6.3 13.6 14.1 13.6 14.1-6.1 14.1-13.6S88 76.7 80.2 76.7zm3.2 20.4c-3.9 1.7-7.2.9-9.8-.2S67 91.4 67 91.4s3.8-3.7 5.9-4.5 10-1.7 12.2 0 4.4 3.8 4.4 3.8c-.5.8-2.2 4.8-6.1 6.4z" fill="#f3d4cf" stroke-width="none" opacity="1" stroke="none"></path><path id="SvgjsPath10746" d="M66.8 91.3s4.8-3.6 6-4.3 7.7-1.2 10.7-.4c4.3 1.2 7.1 5.6 7.1 5.6s0-2.4-.7-5.1c-.8-2.7-5.2-6.9-5.2-6.9s-5.5-1.9-8.4-.9-4.7 3.9-6.3 6.2c-1.6 2.2-2.7 3.7-3.2 5.8z" fill="#ebc3bd" stroke-width="none" opacity="1" stroke="none"></path><path id="SvgjsPath10747" d="M90.6 92.4v-.2c0-1.2-.1-2.3-.3-3.5-.1-.6-.2-1.2-.4-1.7-.2-.6-.4-1.1-.7-1.6-.6-1-1.3-1.9-2.1-2.8s-1.6-1.8-2.4-2.6h-.1c-1-.3-2-.6-3.1-.8s-2.1-.4-3.2-.4c-.5 0-1.1 0-1.6.1-.6.1-1.1.3-1.6.6-1 .5-1.8 1.2-2.5 2s-1.4 1.7-1.9 2.5c-.6.9-1.2 1.8-1.8 2.6-1.1 1.8-2.1 2.6-2.6 4.7l.4.3c1.5 1.8 3.2 3.4 5.1 4.8.5.3 1 .7 1.6.9.5.2 1.1.4 1.7.6 1.1.3 2.3.5 3.5.6 2.4 0 4.8-.7 6.7-2.2.9-.7 1.7-1.6 2.4-2.6.7-.9 1.1-1.7 1.6-2.7.1.1 1.1 1.2 1.1 1.3l.2.1zm-1.1-1.5c-.1-.1-.1-.1-.1 0-.3.4-.5.8-.8 1.3-.3.5-.7.9-1 1.4-.7.9-1.5 1.7-2.5 2.4-.9.7-2 1.1-3.1 1.4-1.1.3-2.2.5-3.4.5-1.1 0-2.3-.2-3.4-.5-.6-.2-1.1-.3-1.6-.6-.5-.2-1-.5-1.5-.8-.9-.7-1.8-1.4-2.7-2.2-.8-.8-1.6-1.6-2.3-2.4l-.4-.3c.1-.5.3-1 .5-1.4.1-.1.1-.2.2-.4.5-.9 1.1-1.8 1.7-2.6 1.2-1.7 2.4-3.5 3.8-5 .7-.7 1.5-1.4 2.4-1.9.4-.2.9-.4 1.4-.5.5-.1 1-.1 1.5-.1 2 .1 4.1.5 6.1 1.1.8.8 1.6 1.6 2.3 2.4.8.9 1.5 1.8 2.1 2.7.3.5.6 1 .7 1.5.2.6.3 1.1.4 1.7.2 1.1.3 2.1.4 3.2.2.1-.7-.9-.7-.9z" fill="#000000" stroke-width="none" opacity="1" stroke="none"></path><path id="SvgjsPath10748" d="M90.7 92.5s-1.5-4.2-3.9-5.8c-1.8-1.2-7.3-2.6-11.4-2s-8.5 3.7-9.6 4.1-2.9 1-4.6.1c0 0 2.7 2.6 5.1 3.2 0 0 3.9-3.1 7-4.3s6.7-1.6 9.7-.9c2.9.8 4.1 1.5 7.7 5.6z" fill="#000000" stroke-width="none" opacity="1" stroke="none"></path></g></g></g><g id="svga-group-eyes-right-move" transform="matrix(1,0,0,1,-1,-2)"><g id="svga-group-eyes-right"><g id="svga-group-eyesback-right"><path id="SvgjsPath10738" d="M119.8 77.2c7.5 0 13.5 5.8 13.5 13s-6 13-13.5 13-13.5-5.8-13.5-13 6-13 13.5-13z" fill="#ffffff" stroke-width="none" opacity="1"></path></g><g id="svga-group-eyesiriswrapper-right" transform="matrix(1,0,0,1,0,0)"><g id="svga-group-eyesiriscontrol-right" transform="matrix(1,0,0,1,-1,0)"><g id="svga-group-eyesiris-right" transform="matrix(0.9499997000000001,0,0,0.9499997000000001,5.990036092588795,4.510027288883194)"><path id="SvgjsPath10688" d="M119.8 85.5c2.6 0 4.7 2.1 4.7 4.7s-2.1 4.7-4.7 4.7-4.7-2.1-4.7-4.7 2.1-4.7 4.7-4.7z" fill="#7085b3" stroke-width="none" opacity="1" stroke="none"></path><path id="SvgjsPath10689" d="M119.8 85.8c2.4 0 4.4 2 4.4 4.4s-2 4.4-4.4 4.4-4.4-2-4.4-4.4 1.9-4.4 4.4-4.4m0-.5c-2.7 0-4.9 2.2-4.9 4.9s2.2 4.9 4.9 4.9 4.9-2.2 4.9-4.9-2.2-4.9-4.9-4.9z" fill="#3f5a94" stroke-width="none" opacity="1" stroke="none"></path><path id="SvgjsPath10690" d="M117.3 91.5c0 1.1.4 2.2 1.2 2.9.4.1.8.2 1.3.2 2.4 0 4.4-2 4.4-4.4 0-.9-.3-1.8-.7-2.4-.6-.3-1.2-.5-1.9-.5-2.4 0-4.3 1.9-4.3 4.2z" fill="#8d9ec2" stroke-width="none" opacity="1" stroke="none"></path><path id="SvgjsPath10691" d="M119.8 87.8c1.3 0 2.4 1.1 2.4 2.4s-1.1 2.4-2.4 2.4-2.4-1.1-2.4-2.4 1.1-2.4 2.4-2.4z" fill="#000000" stroke-width="none" opacity="1"></path><path id="SvgjsPath10692" d="M118.8 87.7c.7 0 1.2.5 1.2 1.2s-.5 1.2-1.2 1.2-1.2-.5-1.2-1.2.5-1.2 1.2-1.2zm2.3 3.5c.4 0 .8.4.8.8s-.4.8-.8.8-.8-.4-.8-.8.4-.8.8-.8z" fill="#ffffff" stroke-width="none" opacity="1"></path></g></g></g><g id="svga-group-eyesfront-right"><path id="SvgjsPath10749" d="M119.8 76.7c-7.8 0-14.1 6.1-14.1 13.6s6.3 13.6 14.1 13.6 14.1-6.1 14.1-13.6-6.3-13.6-14.1-13.6zm6.9 21c-2.6 1.2-7 1.3-10.9-.4s-5.4-5.8-6-6.7c0 0 1.8-1.8 4.1-3.5 2.2-1.8 10.3-1.1 12.4-.2 2.1.9 5.9 4.3 5.9 4.3s-2.9 5.3-5.5 6.5z" fill="#f3d4cf" stroke-width="none" opacity="1" stroke="none"></path><path id="SvgjsPath10752" d="M132.1 91s-2.1-1.7-6.3-3c-1.3-.4-7.2-1.4-10.2-.8-3 .6-7 4.8-7 4.8s0-2 .7-4.3c.8-2.2 5.2-5.7 5.2-5.7s4.8-.8 7.6 0 5.5 2.5 7 4.3c1.7 1.9 2.5 3 3 4.7z" fill="#ebc3bd" stroke-width="none" opacity="1" stroke="none"></path><path id="SvgjsPath10753" d="M131.6 89.4c-.5-.8-1-1.6-1.6-2.4-.3-.4-.6-.8-.9-1.1-.3-.4-.7-.7-1.1-1-.7-.6-1.5-1.2-2.4-1.7-.8-.5-1.7-.9-2.6-1.2-.9-.3-1.9-.5-2.8-.6-1.9-.1-3.8 0-5.7.3h-.2c-.8.6-1.5 1.3-2.2 2s-1.4 1.4-2 2.3c-.3.4-.6.8-.8 1.3-.2.5-.3 1-.4 1.5-.2 1-.3 2.1-.3 3.1v.2l.2-.1c.4-.4.8-.8 1.2-1.1.5.9.9 1.9 1.5 2.7.7 1 1.5 2 2.5 2.7 1 .8 2.1 1.3 3.3 1.7 1.2.4 2.4.6 3.6.7s2.4.1 3.6-.2c.6-.1 1.2-.3 1.8-.5.3-.1.6-.2.9-.4.3-.2.5-.3.8-.5 1-.8 1.8-1.8 2.5-2.8.7-1 1.3-2 1.9-3-.2.1-.2-.9-.8-1.9zm-1.6 4.7c-.7 1-1.5 1.9-2.4 2.7-.9.8-2.1 1-3.2 1.3-1.2.2-2.3.2-3.5.2-1.2-.1-2.3-.3-3.5-.6-1.1-.3-2.2-.8-3.2-1.5-1.8-1.3-3.2-3.4-4.3-5.4-.3.3-.7.6-1.1.9v-.2c0-1 .2-1.5.4-2.5.1-.5.3-1 .5-1.4.2-.4.5-.8.8-1.2.6-.8 1.3-1.5 2.1-2.2.7-.7 1.4-1.3 2.2-1.9 1.8-.2 3.7-.3 5.5-.2.9.1 1.8.2 2.7.5.9.3 1.7.7 2.6 1.1s1.6 1 2.3 1.6c.4.3.7.6 1 1 .3.3.6.7.9 1.1.5.6 2.2 4 2.2 4-.6.8-1.3 1.8-2 2.7z" fill="#000000" stroke-width="none" opacity="1" stroke="none"></path><path id="SvgjsPath10754" d="M108.2 92.6s4.6-4.2 6.9-4.9c2.3-.7 8.4 0 10.4.6 1.9.6 6.8 3.4 7.5 3.8s3.6-1.8 4.2-2.6c0 0-2.2.8-5-.5-1-.4-6.1-3.2-8.9-3.3-2.9-.1-7.8 0-9.2.8-3.5 1.7-5.9 6.1-5.9 6.1z" fill="#000000" stroke-width="none" opacity="1" stroke="none"></path></g></g></g><g id="svga-group-facehighlight-single"></g><g id="svga-group-eyebrows-left-move" transform="matrix(1,0,0,1,0,-3)"><g id="svga-group-eyebrows-left-rotate" transform="matrix(0.991444860918188,0.13052619568084703,-0.13052619568084703,0.991444860918188,10.706052296379013,-9.59848805257137)"><g id="svga-group-eyebrows-left"><path id="SvgjsPath10797" d="M63.58 81.61s2.73-6.07 7.31-8.29c5.98-2.9 21.19 2.04 22.07 2.67.87.63.35 3.77-1.13 3.92-1.48.15-8.53-2.96-13.8-4.33-5.27-1.38-9.96 0-14.45 6.03z" fill="#6b4e40" stroke-width="none" opacity="1" stroke="none"></path><path id="SvgjsPath10798" d="M63.57 81.64c.12-.13.26-.26.39-.42l.37-.43c.24-.28.49-.55.74-.81.5-.52 1.02-1.03 1.58-1.49 1.09-.93 2.31-1.71 3.61-2.24 1.3-.53 2.7-.8 4.1-.78 1.41.01 2.8.26 4.18.67 2.78.78 5.52 1.77 8.27 2.72 1.38.47 2.75.96 4.22 1.28.19.03.37.07.57.07.2.01.44-.01.64-.1.41-.18.69-.52.88-.87.2-.35.32-.73.4-1.12.08-.39.1-.79.05-1.2-.03-.2-.07-.4-.16-.61-.08-.2-.23-.4-.44-.51-.36-.18-.7-.28-1.05-.41-.7-.23-1.39-.45-2.09-.66a90.5 90.5 0 0 0-4.22-1.12c-2.83-.68-5.67-1.3-8.59-1.47-1.45-.08-2.93-.04-4.37.27-.72.16-1.44.39-2.11.75-.66.35-1.28.77-1.85 1.24-1.14.95-2.13 2.09-2.98 3.3-.43.6-.82 1.25-1.18 1.9-.18.33-.35.66-.52.99-.08.17-.16.34-.24.5l-.11.26-.06.13-.02.06-.01.03-.01.02c-.01.01-.01.04.01.05zm.03-.07c1.45-2.5 3.19-4.99 5.44-6.73.56-.43 1.16-.82 1.78-1.13.61-.32 1.28-.52 1.97-.67 1.37-.27 2.8-.32 4.23-.3 1.43.02 2.86.15 4.29.34 1.43.18 2.85.43 4.27.75 1.42.32 2.81.7 4.2 1.13.69.21 1.39.45 2.06.71.33.13.68.27.98.42.24.13.34.5.36.84.04.7-.13 1.44-.48 2.02-.17.29-.41.53-.67.62-.13.05-.26.06-.42.05-.15-.01-.33-.05-.5-.09-.68-.16-1.37-.39-2.05-.62L87 78.17c-2.74-.99-5.47-2.05-8.3-2.83-1.41-.39-2.9-.66-4.37-.62-1.48.03-2.95.36-4.3.96-1.35.59-2.56 1.49-3.64 2.5-.55.5-1.04 1.05-1.51 1.62-.23.29-.47.57-.69.87-.11.14-.24.3-.31.44-.08.14-.16.31-.28.46z" fill="#5c3d2e" stroke-width="none" opacity="1" stroke="none"></path></g></g></g><g id="svga-group-eyebrows-right-move" transform="matrix(1,0,0,1,0,-3)"><g id="svga-group-eyebrows-right-rotate" transform="matrix(0.9978589230103034,0.06540313271332769,-0.06540313271332769,0.9978589230103034,5.358032571711547,-7.851405317007007)"><g id="svga-group-eyebrows-right"><path id="SvgjsPath10799" d="M136.97 82.09s-2.84-5.43-7.28-7.34c-5.81-2.49-20.12 2.3-20.92 2.88s-.19 3.42 1.23 3.52c1.41.1 8-2.86 12.98-4.22 4.95-1.34 9.48-.19 13.99 5.16z" fill="#6b4e40" stroke-width="none" opacity="1" stroke="none"></path><path id="SvgjsPath10800" d="m137 82.06-.01-.02-.02-.03-.03-.06-.06-.12-.12-.23c-.08-.15-.16-.31-.25-.45-.18-.3-.35-.59-.54-.88-.37-.59-.77-1.15-1.2-1.69-.86-1.08-1.84-2.09-2.97-2.92-.56-.41-1.17-.78-1.81-1.09-.64-.31-1.34-.49-2.04-.63-1.39-.25-2.8-.25-4.18-.15-2.77.22-5.46.84-8.13 1.51-1.33.35-2.66.7-3.97 1.1-.66.2-1.31.41-1.96.64-.33.12-.64.22-.98.39-.2.1-.33.29-.4.47s-.11.37-.13.56a3.636 3.636 0 0 0 .52 2.1c.2.32.48.61.88.77.19.07.42.1.62.08.19-.01.37-.04.54-.09 1.38-.32 2.67-.79 3.96-1.25 2.58-.92 5.16-1.87 7.78-2.64 1.3-.4 2.61-.65 3.96-.69 1.33-.04 2.68.17 3.93.62 1.26.45 2.45 1.13 3.53 1.95.54.41 1.06.86 1.56 1.32.25.23.49.47.74.71l.36.38c.13.14.27.26.39.37.02.01.03-.02.03-.03zm-.34-.4c-.08-.11-.21-.26-.32-.39-.22-.27-.45-.52-.69-.77-.47-.5-.97-.99-1.51-1.43-1.06-.89-2.25-1.66-3.55-2.18-1.3-.52-2.72-.78-4.13-.78-1.42-.01-2.82.26-4.14.65-2.66.76-5.22 1.78-7.79 2.74l-1.92.71c-.64.23-1.29.45-1.93.62-.16.04-.32.07-.47.09-.15.02-.27.01-.4-.03-.25-.08-.49-.29-.66-.54-.35-.51-.55-1.18-.53-1.82.01-.31.09-.64.31-.76.28-.15.6-.28.92-.41.64-.25 1.28-.48 1.93-.69 1.3-.42 2.63-.8 3.95-1.12 1.34-.32 2.68-.57 4.04-.77 1.36-.2 2.72-.34 4.07-.4s2.72-.05 4.03.18c.66.11 1.3.28 1.9.56.61.27 1.19.6 1.75.98 2.21 1.53 3.97 3.75 5.45 5.97-.13-.15-.22-.3-.31-.41z" fill="#5c3d2e" stroke-width="none" opacity="1" stroke="none"></path></g></g></g><g id="svga-group-nose-single-move" transform="matrix(1,0,0,1,0,-1)"><g id="svga-group-nose-single" transform="matrix(1.0500001,0,0,1.0500001,-5.01512901064568,-5.099509710717783)"><path id="SvgjsPath10787" d="M109.52 109.12c-.37-.88-.94-1.63-1.59-2.29.5.77.95 1.58 1.22 2.42.13.42.21.86.14 1.25-.04.2-.1.36-.23.53-.12.17-.25.34-.41.47-.61.58-1.49.8-2.35.68-.43-.05-.87-.17-1.28-.35-.39-.14-.76-.35-1.13-.54.33-.49.63-1.01.89-1.55-.86.8-1.66 1.61-2.52 2.32-.43.35-.86.7-1.32.96-.45.27-.94.48-1.33.46-.1.01-.18-.02-.27-.03-.08-.05-.15-.05-.26-.14-.21-.13-.43-.31-.65-.48-.44-.34-.87-.72-1.31-1.08-.87-.74-1.75-1.48-2.69-2.17.44.7.95 1.34 1.47 1.97-.44.2-.89.36-1.34.46-.56.11-1.15.13-1.62-.09-.95-.47-1.51-1.61-1.35-2.58.04-.25.12-.44.26-.65.15-.23.32-.46.49-.69.35-.45.72-.9 1.11-1.33l.58-.65c.23-.25.4-.49.58-.74.36-.5.68-1.03.94-1.61.26-.57.42-1.23.52-1.81.1-.59.2-1.18.26-1.77.13-1.18.24-2.36.27-3.55.08-2.37.02-4.76-.45-7.08.05 2.36-.12 4.7-.35 7.03-.13 1.16-.26 2.33-.44 3.48-.09.58-.18 1.15-.28 1.72-.11.58-.23 1.07-.47 1.57-.22.5-.5.99-.82 1.45-.16.23-.33.47-.5.65-.2.23-.39.45-.58.68-.38.46-.74.94-1.09 1.43-.17.25-.35.5-.5.77-.18.29-.3.67-.32 1-.11 1.38.74 2.67 1.98 3.12.64.2 1.29.1 1.86-.1.47-.16.9-.4 1.31-.67.21.25.41.5.63.74.39.44.8.84 1.24 1.25.22.2.45.39.72.57.11.09.32.19.5.27.19.05.39.1.58.1.77 0 1.36-.33 1.88-.66.51-.36.96-.75 1.36-1.2.39-.42.74-.87 1.06-1.34.66.58 1.44 1.09 2.36 1.27.47.1.98.11 1.46 0 .48-.12.94-.36 1.31-.7.19-.17.34-.37.48-.57.15-.2.26-.48.28-.73.03-.54-.1-1.03-.29-1.47z" fill="#c5796d" stroke-width="none" opacity="1" stroke="none"></path></g></g><g id="svga-group-hair-front" transform="matrix(1.0200001,0,0,1.0001001,-1.9880097416347553,-0.009433172718999572)"><path id="SvgjsPath10842" d="M98.8 29.6s-6.6-4.7-8.6-4.8c0 0-2.9.5-6.9 3.5-3.8 3.1-18.6 13.7-20.4 15.8S60 48.7 60 48.7s-4.1 10.7-5.5 16.2l-3.9 17.5 1 19.6 2.4 31.7 3.1 16.5 1.5 6.8-.1-8 6.1 10.8 7 1.8-1.4-9.1 6.9 9.7-4.4-16.2-4.9-19.7-1-26.7s-.1-15.6.3-18.6.8-5.8.8-5.8l2.9-8.9s2.8-7.7 3.9-10 3.5-8.1 4.4-9.4c1-1.3 2.3-2.2 2.3-2.2s2.9.4 4.1.8 14.7 4.6 14.7 4.6l9-4.6s3.3-1.9 4.8-1.8c1.5.1 4.6 1.4 4.6 1.4s5.5 4.1 6.9 6.2 6.9 10.7 6.9 10.7 1.8 14.7 1.9 18.3c.1 3.6.9 10.1.9 10.1s1.4 11.6 1.4 13.7.3 7.9.3 7.9l-.3 8.5s-1.8 15.5-1.9 16.4c-.1.9-2.2 17.3-2.2 17.3l-.7 5.9 3.7-2.3 1-6.1 2 4.3 2.1 3.6.4-12 7.5 10.8-1.7-18.1-2.4-23.3.3-26.4.9-20.9.1-9.1-5.2-10.2s-5.1-8.4-8.2-10.8c-3.1-2.3-10-8.3-15-10.3s-9.9-3.1-9.9-3.1l-8.6 3.4z" fill="#b79675" stroke-width="none" opacity="1" stroke="none"></path><path id="SvgjsPath10843" d="M136.9 123.2c.2-2.1.4-4.1.6-6.2.2-2.1.4-4.1.4-6.3-.6-8.3-1.4-16.5-2.1-24.7-.8-8.2-1.5-16.4-2.3-24.7v-.2l-.1-.1c-.8-1.8-1.7-3.2-2.7-4.7-1-1.5-2-2.9-3.1-4.3-2.2-2.7-4.5-5.5-7.6-7.6-1.5-1-3.4-1.8-5.3-1.8-1 0-2 .2-2.9.6-.9.4-1.6.8-2.4 1.2l-9.1 4.7c-2.7-.9-5.4-1.7-8.1-2.5-2.8-.8-5.7-1.7-8.6-2.3-.4-.1-.7-.1-1.1-.2l-.6-.1c-.2 0-.5 0-.7.1-.9.4-1.3 1-1.8 1.6-.9 1.2-1.6 2.5-2.2 3.9-1.3 2.7-2.4 5.4-3.5 8.1-2.1 5.5-4.1 11-5.9 16.6-.2.7-.3 1.5-.5 2.2l-.3 2.2c-.2 1.5-.3 2.9-.4 4.4-.2 2.9-.3 5.9-.4 8.8-.1 5.9-.2 11.8 0 17.6.1 2.9.2 5.9.3 8.8l.2 4.4c0 .7.1 1.5.2 2.2.1.8.2 1.5.3 2.3 1.2 5.8 2.8 11.5 4.3 17.2 1.3 4.7 2.7 9.4 4 14.1l-5.1-6.6-.9-1.1.3 1.4c.6 3.1 1.2 6.3 1.9 9.4h.2l-1.2-8.1c1.9 2.7 3.8 5.4 5.8 8.1l1.7 2.4-.8-2.9-4.5-17c-1.5-5.7-3-11.4-4.1-17.1-.2-.7-.2-1.4-.3-2.1l-.1-2.2-.2-4.4c-.1-2.9-.3-5.9-.3-8.8-.2-5.9-.4-11.7-.4-17.6 0-2.9 0-5.9.1-8.8.1-2.9.2-5.9 1-8.6 1.4-5.5 3.3-11 5.5-16.5 1.1-2.7 2.3-5.4 3.6-8 .7-1.3 1.4-2.6 2.2-3.7.4-.5.9-1.1 1.4-1.3h.4l.5.1c.3.1.7.2 1.1.2 5.6 1.4 11.2 3.4 16.7 5.3l.3.1.3-.1L110 46c.8-.4 1.6-.8 2.3-1.1.7-.3 1.5-.4 2.2-.4 1.5 0 3 .7 4.4 1.6 2.7 1.8 5 4.5 7.1 7.2 1.1 1.4 2.1 2.8 3 4.2.9 1.4 1.8 2.9 2.4 4.3.7 8.2 1.5 16.3 2.3 24.5l2.4 24.6c.1 1.9-.1 4-.2 6.1-.2 2.1-.3 4.1-.5 6.2l-1.2 12.3-2.6 24.6h.2c1.3-8.1 2.6-16.3 3.6-24.5.5-4.2 1-8.3 1.5-12.4zm2.9 7.4c.2-1.5.4-3 .4-4.7l-.1-1.2v-3.4c.1-12.2.5-24.5.4-36.7 0-1.5 0-3.1-.1-4.6 0-.8-.1-1.6-.1-2.3 0-.4-.1-.8-.1-1.2l-.1-.6-.1-.6c-.5-3-1-6-1.6-9-.6-3-1.2-6-2.1-9-.4-1.5-.8-3-1.4-4.5-.3-.7-.6-1.5-.9-2.2-.4-.7-.8-1.5-1.6-2.2-2.5-1.9-5-3.6-7.6-5.3-2.6-1.7-5.2-3.3-8-4.7-.7-.3-1.4-.7-2.2-.9-.4-.1-.8-.2-1.5-.2-.5.1-.9.3-1.2.4-1.5.6-2.8 1.3-4.2 2.1-2.6 1.4-5.2 2.9-7.8 4.4-5.2-2-10.4-4-15.8-5.7-1.4-.4-2.7-.9-4.1-1.2-.7-.2-1.4-.3-2.1-.5H77c-.1 0-.3 0-.4.1-.4.2-.7.5-.9.8-.9 1.2-1.5 2.5-2.1 3.8-.6 1.3-1.2 2.6-1.7 3.9-2.2 5.2-4.1 10.6-6.1 15.9-1.9 5.3-3.8 10.7-5.6 16.1-.9 2.7-1.8 5.4-2.6 8.1-.4 1.4-.8 2.7-1.2 4.1-.2.7-.4 1.4-.5 2.1 0 .2-.1.4-.1.6V94c.1 5.8.5 11.4.9 17.1.4 5.7.9 11.3 1.4 17l1.6 17v.1c1.6 4.9 3.1 9.8 4.7 14.7l.2-.1c-1.3-5-2.6-9.9-3.9-14.9L58.4 111l-.5-8.5c-.1-2.8-.3-5.7-.4-8.5v-1.5c0-.2 0-.3.1-.5.1-.7.3-1.3.5-2 .3-1.4.7-2.7 1.1-4.1.8-2.7 1.5-5.5 2.3-8.2 3.2-10.9 6.6-21.7 10.9-32.2.5-1.3 1.1-2.6 1.7-3.9.6-1.3 1.3-2.5 2.1-3.6.2-.3.4-.5.7-.6h.8c.7.1 1.4.3 2 .5 1.4.4 2.7.8 4 1.3 5.3 1.9 10.6 4 15.8 6.2l.2.1.3-.1c2.7-1.5 5.4-2.9 8.1-4.3 1.4-.7 2.7-1.4 4.1-1.9.3-.1.7-.2.9-.3.1 0 .5 0 .8.2.7.2 1.3.5 2 .9 2.7 1.4 5.2 3.1 7.7 4.8 2.5 1.7 5 3.5 7.4 5.3.4.3.7.9 1 1.5.3.6.6 1.3.8 2 .5 1.4.9 2.8 1.3 4.3.8 2.9 1.4 5.9 1.9 8.9l1.6 9 .1.6.1.5c0 .3.1.7.1 1.1 0 .8.1 1.5.1 2.3 0 1.5.1 3 .1 4.6 0 12.2-.1 24.5.1 36.7 0 .8 0 1.5.1 2.3 0 .4 0 .8.1 1.2l.1.6v.5c.1 1.4-.1 3-.2 4.5-.3 3-.6 6.1-1 9.1-.7 6.1-1.5 12.1-2.3 18.2h.2c1.1-6 2.1-12.1 3.1-18.1.7-3.2 1.1-6.2 1.5-9.3zm9.3 30.1-.2-2.4-2.1-24.3-1.1-12.1c-.4-4-.5-8-.5-12 0-8.1.2-16.2.5-24.3l.9-24.3v-.2l-.1-.2c-.8-2.3-1.7-4.3-2.7-6.4-1-2.1-2.2-4-3.4-6-2.5-3.9-5.5-7.4-8.8-10.6-3.3-3.2-7.1-5.8-11.2-8-2-1.1-4.2-1.9-6.3-2.7-2.2-.7-4.4-1.4-6.7-1.7h-.1l-.1.1-8.2 3.6c-1.3-1-2.6-1.9-3.9-2.7-.7-.4-1.5-.9-2.2-1.2-.8-.3-1.6-.7-2.5-.8-.4 0-.9-.1-1.4.1-.4.1-.8.3-1.2.5-.8.4-1.5.8-2.2 1.3-1.4.9-2.8 1.9-4.1 2.9-5.4 4-10.7 8-15.9 12.2-1.3 1.1-2.6 2.1-3.9 3.2-1.2 1.4-1.8 2.9-2.5 4.5-1.3 3.1-2.4 6.2-3.5 9.4-1 3.2-2 6.4-2.9 9.6-.9 3.2-1.7 6.5-2.4 9.8-.2.8-.3 1.7-.5 2.5-.1.4-.1.8-.2 1.3v1.3c0 1.7.1 3.4.1 5 .1 3.3.3 6.7.5 10 .4 6.7.9 13.3 1.5 20 .3 3.3.5 6.7.9 10 .2 1.7.3 3.3.5 5 .2 1.7.5 3.4.8 5 1.3 6.6 2.8 13.1 4.3 19.5l.5-.1-.5-7.8h-.2l.1 4.7-1.3-6.8c-.6-3.3-1.3-6.6-1.8-9.8-.3-1.6-.6-3.3-.7-4.9-.2-1.6-.3-3.3-.4-5l-.7-10c-.5-6.7-.9-13.3-1.2-20l-.5-10c-.1-1.7-.2-3.3-.2-5v-1.2c0-.4.1-.8.1-1.2.1-.8.3-1.6.4-2.4 1.3-6.5 2.9-13 4.8-19.3 1-3.2 2-6.3 3.2-9.4.6-1.5 1.3-3.1 2.3-4.3.5-.5 1.2-1.1 1.8-1.6l1.9-1.6c5.2-4.2 10.3-8.4 15.8-12.3 1.3-1 2.7-1.9 4.1-2.8.7-.4 1.4-.9 2.1-1.2.4-.2.7-.4 1.1-.5.3-.1.7-.1 1.1 0 1.5.2 3 1.1 4.4 1.9 1.4.9 2.7 1.9 4 2.9l.2.2.2-.1 8.2-3.4c2.1.4 4.2 1 6.3 1.8 2.1.8 4.1 1.7 6.1 2.8 3.9 2.2 7.6 4.8 10.7 7.9 3.2 3.1 6 6.6 8.4 10.4 1.2 1.9 2.3 3.8 3.3 5.8 1 1.9 1.8 4 2.5 6-.4 8-.8 16.1-1.1 24.1-.3 8.1-.5 16.2-.4 24.4 0 2 0 4.1.1 6.1s.3 4.2.5 6.1l1.3 12.1 2.4 21.9-6.4-9-.8-1.1v12.8l-1.9-3.2-.2.1 2.1 3.8.3.6v-.7l.4-10.8 6.7 10.1 1.7 2.1z" fill="#a8815a" stroke-width="none" opacity="1" stroke="none"></path></g><g id="svga-group-glasses-single-move" transform="matrix(1,0,0,1,0,0)"><g id="svga-group-glasses-single"></g></g></g></g></g><rect id="svga-credit-rect" width="200" height="15" x="0" y="185" fill="#ecf0f1" opacity="0.5" style="display: none;"></rect><text id="svga-credit-text" font-family="Avenir Next, Roboto, Helvetica, Arial, sans-serif" font-size="10px" text-anchor="start" font-weight="400" size="10px" anchor="start" weight="400" fill="#333333" x="33.40447998046875" y="182.60824704170227" style="display: none;"><tspan id="SvgjsTspan10590" dy="13" x="33.40447998046875">Created on AvatarMaker.com</tspan></text></g><defs id="SvgjsDefs10542"></defs></svg>